<svg width="676" height="735" viewBox="0 0 676 735" fill="none" xmlns="http://www.w3.org/2000/svg">
<g filter="url(#filter0_d_39_50)">
<path fill-rule="evenodd" clip-rule="evenodd" d="M174 374C174 297.232 236.232 235 313 235V235C389.768 235 452 297.232 452 374V374C452 450.768 389.768 513 313 513V513C236.232 513 174 450.768 174 374V374Z" fill="#650DBC"/>
</g>
<mask id="mask0_39_50" style="mask-type:luminance" maskUnits="userSpaceOnUse" x="361" y="186" width="159" height="361">
<path fill-rule="evenodd" clip-rule="evenodd" d="M411 186L361 244L392 514L442 547L520 435L510 261L411 186Z" fill="white"/>
</mask>
<g mask="url(#mask0_39_50)">
<path d="M315 563C210.618 563 126 478.382 126 374C126 269.618 210.618 185 315 185C419.382 185 504 269.618 504 374C504 478.382 419.382 563 315 563Z" stroke="#A26AD9" stroke-width="2"/>
</g>
<mask id="mask1_39_50" style="mask-type:luminance" maskUnits="userSpaceOnUse" x="59" y="403" width="507" height="223">
<path fill-rule="evenodd" clip-rule="evenodd" d="M541 414L566 422L520 536L387 626L213 617L97 532L59 403L117 409L247 568L433 553L541 414Z" fill="white"/>
</mask>
<g mask="url(#mask1_39_50)">
<path d="M315 613C183.004 613 76 505.996 76 374C76 242.004 183.004 135 315 135C446.996 135 554 242.004 554 374C554 505.996 446.996 613 315 613Z" stroke="#C488FF" stroke-width="2"/>
</g>
<mask id="mask2_39_50" style="mask-type:luminance" maskUnits="userSpaceOnUse" x="0" y="83" width="235" height="483">
<path fill-rule="evenodd" clip-rule="evenodd" d="M113 549L75 566L0 423L31 234L107 150L215 83L235 143L62 286L47 457L113 549Z" fill="white"/>
</mask>
<g mask="url(#mask2_39_50)">
<path d="M315 663C155.39 663 26 533.61 26 374C26 214.39 155.39 85 315 85C474.61 85 604 214.39 604 374C604 533.61 474.61 663 315 663Z" stroke="#8551F1" stroke-width="2"/>
</g>
<mask id="mask3_39_50" style="mask-type:luminance" maskUnits="userSpaceOnUse" x="10" y="0" width="666" height="356">
<path fill-rule="evenodd" clip-rule="evenodd" d="M85 102L10 187L47.5 207L186 85L369 76L585 238L625 356L676 331L611 89L306 0L85 102Z" fill="white"/>
</mask>
<g mask="url(#mask3_39_50)">
<path d="M315 713C127.775 713 -24 561.225 -24 374C-24 186.775 127.775 35 315 35C502.225 35 654 186.775 654 374C654 561.225 502.225 713 315 713Z" stroke="#A26AD9" stroke-width="2"/>
</g>
<mask id="mask4_39_50" style="mask-type:luminance" maskUnits="userSpaceOnUse" x="140" y="538" width="487" height="197">
<path fill-rule="evenodd" clip-rule="evenodd" d="M171 650L140 700L299 735L560 671L627 573L585 538L399 676L171 650Z" fill="white"/>
</mask>
<g mask="url(#mask4_39_50)">
<path d="M315 713C127.775 713 -24 561.225 -24 374C-24 186.775 127.775 35 315 35C502.225 35 654 186.775 654 374C654 561.225 502.225 713 315 713Z" stroke="#8551F1" stroke-width="2"/>
</g>
<path d="M419 540C414.029 540 410 535.971 410 531C410 526.029 414.029 522 419 522C423.971 522 428 526.029 428 531C428 535.971 423.971 540 419 540Z" fill="white" stroke="#A26AD9" stroke-width="2"/>
<path d="M604 559C599.029 559 595 554.971 595 550C595 545.029 599.029 541 604 541C608.971 541 613 545.029 613 550C613 554.971 608.971 559 604 559Z" fill="white" stroke="#8551F1" stroke-width="2"/>
<path d="M151 678C146.029 678 142 673.971 142 669C142 664.029 146.029 660 151 660C155.971 660 160 664.029 160 669C160 673.971 155.971 678 151 678Z" fill="white" stroke="#8551F1" stroke-width="2"/>
<path d="M394 212C389.029 212 385 207.971 385 203C385 198.029 389.029 194 394 194C398.971 194 403 198.029 403 203C403 207.971 398.971 212 394 212Z" fill="white" stroke="#A26AD9" stroke-width="2"/>
<path d="M550 425C545.029 425 541 420.971 541 416C541 411.029 545.029 407 550 407C554.971 407 559 411.029 559 416C559 420.971 554.971 425 550 425Z" fill="white" stroke="#C488FF" stroke-width="2"/>
<path d="M78 415C73.0294 415 69 410.971 69 406C69 401.029 73.0294 397 78 397C82.9706 397 87 401.029 87 406C87 410.971 82.9706 415 78 415Z" fill="white" stroke="#C488FF" stroke-width="2"/>
<path d="M91 566C86.0294 566 82 561.971 82 557C82 552.029 86.0294 548 91 548C95.9706 548 100 552.029 100 557C100 561.971 95.9706 566 91 566Z" fill="white" stroke="#8551F1" stroke-width="2"/>
<path d="M220 110C215.029 110 211 105.971 211 101C211 96.0294 215.029 92 220 92C224.971 92 229 96.0294 229 101C229 105.971 224.971 110 220 110Z" fill="white" stroke="#8551F1" stroke-width="2"/>
<path d="M28 202C23.0294 202 19 197.971 19 193C19 188.029 23.0294 184 28 184C32.9706 184 37 188.029 37 193C37 197.971 32.9706 202 28 202Z" fill="white" stroke="#A26AD9" stroke-width="2"/>
<path d="M652 350C647.029 350 643 345.971 643 341C643 336.029 647.029 332 652 332C656.971 332 661 336.029 661 341C661 345.971 656.971 350 652 350Z" fill="white" stroke="#A26AD9" stroke-width="2"/>
<defs>
<filter id="filter0_d_39_50" x="94" y="195" width="438" height="438" filterUnits="userSpaceOnUse" color-interpolation-filters="sRGB">
<feFlood flood-opacity="0" result="BackgroundImageFix"/>
<feColorMatrix in="SourceAlpha" type="matrix" values="0 0 0 0 0 0 0 0 0 0 0 0 0 0 0 0 0 0 127 0" result="hardAlpha"/>
<feOffset dy="40"/>
<feGaussianBlur stdDeviation="40"/>
<feColorMatrix type="matrix" values="0 0 0 0 0 0 0 0 0 0 0 0 0 0 0 0 0 0 0.1 0"/>
<feBlend mode="normal" in2="BackgroundImageFix" result="effect1_dropShadow_39_50"/>
<feBlend mode="normal" in="SourceGraphic" in2="effect1_dropShadow_39_50" result="shape"/>
</filter>
</defs>
</svg>
