<svg width="1302" height="1302" viewBox="0 0 1302 1302" fill="none" xmlns="http://www.w3.org/2000/svg">
<path d="M650.6 1284.2C565.1 1284.2 482.1 1267.5 404 1234.4C328.6 1202.5 260.8 1156.8 202.6 1098.6C144.4 1040.4 98.7 972.7 66.8 897.2C33.8 819.1 17 736.1 17 650.6C17 565.1 33.7 482.1 66.8 404C98.7 328.6 144.4 260.8 202.6 202.6C260.8 144.4 328.5 98.7 404 66.8C482.1 33.8 565.1 17 650.6 17C736.1 17 819.1 33.7 897.2 66.8C972.6 98.7 1040.4 144.4 1098.6 202.6C1156.8 260.8 1202.5 328.5 1234.4 404C1267.4 482.1 1284.2 565.1 1284.2 650.6C1284.2 736.1 1267.5 819.1 1234.4 897.2C1202.5 972.6 1156.8 1040.4 1098.6 1098.6C1040.4 1156.8 972.7 1202.5 897.2 1234.4C819.1 1267.4 736.1 1284.2 650.6 1284.2Z" fill="#00D7F3"/>
<path d="M650.5 34C733.7 34 814.5 50.3 890.5 82.4C927 97.8 962.3 117 995.2 139.2C1027.9 161.3 1058.6 186.6 1086.5 214.5C1114.4 242.4 1139.7 273.1 1161.8 305.8C1184.1 338.8 1203.2 374 1218.6 410.5C1250.7 486.5 1267 567.2 1267 650.5C1267 733.8 1250.7 814.5 1218.6 890.5C1203.2 927 1184 962.3 1161.8 995.2C1139.7 1027.9 1114.4 1058.6 1086.5 1086.5C1058.6 1114.4 1027.9 1139.7 995.2 1161.8C962.2 1184.1 927 1203.2 890.5 1218.6C814.5 1250.7 733.8 1267 650.5 1267C567.2 1267 486.5 1250.7 410.5 1218.6C374 1203.2 338.7 1184 305.8 1161.8C273.1 1139.7 242.4 1114.4 214.5 1086.5C186.6 1058.6 161.3 1027.9 139.2 995.2C116.9 962.2 97.8 927 82.4 890.5C50.3 814.5 34 733.8 34 650.5C34 567.2 50.3 486.5 82.4 410.5C97.8 374 117 338.7 139.2 305.8C161.3 273.1 186.6 242.4 214.5 214.5C242.4 186.6 273.1 161.3 305.8 139.2C338.8 116.9 374 97.8 410.5 82.4C486.5 50.3 567.2 34 650.5 34ZM650.5 0C291.3 0 0 291.3 0 650.5C0 1009.7 291.3 1301 650.5 1301C1009.7 1301 1301 1009.7 1301 650.5C1301 291.3 1009.8 0 650.5 0Z" fill="black"/>
<path d="M736.806 91.0875C751.476 93.45 766.047 96.3047 780.421 99.75L773.234 130.462L751.082 222.6L750.59 221.517L748.128 231.755C737.2 229.195 726.174 227.03 714.95 225.258C703.825 223.486 692.7 222.206 681.378 221.32C670.253 220.434 659.029 220.041 647.609 220.041C636.188 220.041 624.964 220.434 613.839 221.32L611.476 190.017C623.488 189.131 635.499 188.639 647.707 188.639C659.915 188.639 672.025 189.131 683.937 190.017C696.146 191.002 708.157 192.38 719.971 194.25L723.318 173.578C710.913 171.609 698.41 170.133 685.71 169.148C673.206 168.164 660.604 167.672 647.805 167.672C635.007 167.672 622.405 168.164 609.901 169.148L603.6 85.6734C618.27 84.5906 633.038 84 648.002 84V136.467C661.589 136.467 675.077 136.959 688.368 138.042C701.856 139.125 715.245 140.7 728.438 142.767L736.806 91.0875Z" fill="black"/>
<path d="M114.489 609.066C113.112 622.933 112.926 637.214 113.324 651H113.388C113.732 668.497 114.35 686.063 114.894 693.033C115.977 707.109 117.552 720.989 119.718 734.77C121.884 748.748 124.64 762.431 127.889 776.016C131.138 789.698 134.88 803.184 139.211 816.473C143.543 829.861 148.466 843.052 153.782 855.947C159.197 868.941 165.006 881.737 171.405 894.141C177.805 906.642 184.696 918.848 191.982 930.759C199.267 942.769 207.045 954.384 215.315 965.705C223.487 977.025 232.249 988.05 241.306 998.681L257.256 985.097C248.493 974.859 240.224 964.327 232.249 953.4C224.373 942.572 216.89 931.35 209.802 919.833C202.713 908.316 196.117 896.602 190.013 884.592L218.072 870.417C223.782 881.737 229.984 892.762 236.581 903.492C243.177 914.32 250.266 924.755 257.65 934.992C265.033 945.23 272.91 955.073 281.081 964.72L297.03 951.136C289.154 941.981 281.672 932.433 274.583 922.687C267.495 912.942 260.702 902.901 254.401 892.566C248.1 882.328 242.193 871.795 236.679 860.967L264.738 846.792C269.858 856.833 275.371 866.677 281.278 876.225C287.185 885.773 293.486 895.223 300.083 904.28C306.777 913.336 313.767 922.195 321.053 930.759C328.338 939.323 336.018 947.592 343.992 955.566L248.001 1051.54C237.467 1041.01 227.425 1030.18 217.776 1018.86C208.128 1007.54 198.972 995.925 190.21 983.916C181.546 971.906 173.276 959.601 165.498 946.903C157.72 934.303 150.533 921.408 143.74 908.119C137.045 895.026 130.843 881.541 125.133 867.759C119.521 854.077 114.401 840.197 109.774 826.022C105.245 811.945 101.209 797.672 97.7629 783.201C94.3171 768.928 91.3637 754.359 89.0992 739.594C86.8348 725.025 85.161 710.259 83.9796 695.395L83.5859 695.789C82.9891 688.429 82.3419 669.661 82 651H82.4007C82.1621 632.363 82.542 614.739 83.1813 606.801C84.2643 591.937 86.0365 577.172 88.3009 562.603C90.6637 547.936 93.5188 533.367 96.9647 518.995C100.41 504.525 104.447 490.251 108.976 476.175C113.505 462 118.624 448.12 124.334 434.437C129.946 420.755 136.247 407.269 142.942 394.078C149.735 380.887 156.922 367.894 164.7 355.294C172.478 342.595 180.649 330.291 189.411 318.281C198.174 306.272 207.33 294.558 216.978 283.336C226.626 272.016 236.669 261.187 247.203 250.655C257.737 240.122 268.567 230.081 279.889 220.434C291.211 210.787 302.828 201.633 314.84 192.872L395.472 302.925C386.414 309.619 377.554 316.608 368.988 323.892L301.056 244.158C290.423 253.312 280.184 262.762 270.241 272.705L344.08 346.533C336.105 354.506 328.426 362.775 321.141 371.339L241.394 303.417C232.337 314.048 223.673 325.073 215.403 336.394L300.072 398.409C293.377 407.466 287.175 416.817 281.267 426.464L191.676 371.339C184.39 383.25 177.499 395.456 171.099 407.958C164.7 420.459 158.891 433.158 153.476 446.152C148.061 459.047 143.237 472.237 138.905 485.625C134.672 498.914 130.832 512.4 127.583 526.083C124.334 539.667 121.578 553.35 119.412 567.328L119.316 567.938C118.65 572.172 118.205 575.008 117.812 577.851C117.016 583.619 116.44 589.418 114.696 606.98L114.696 606.981L114.696 606.984L114.489 609.066Z" fill="black"/>
<path d="M1215 651H1183.61C1183.27 633.503 1182.65 615.936 1182.11 608.967C1181.02 594.891 1179.45 581.011 1177.28 567.23C1175.12 553.252 1172.36 539.569 1169.11 525.984C1165.86 512.302 1162.12 498.816 1157.79 485.527C1153.46 472.139 1148.53 458.948 1143.22 446.053C1137.8 433.059 1131.99 420.262 1125.59 407.859C1119.2 395.358 1112.3 383.152 1105.02 371.241C1097.73 359.231 1089.95 347.616 1081.68 336.295C1073.51 324.975 1064.75 313.95 1055.69 303.319L1039.74 316.903C1048.51 327.141 1056.78 337.673 1064.75 348.6C1072.63 359.428 1080.11 370.65 1087.2 382.167C1094.29 393.684 1100.88 405.398 1106.99 417.408L1078.93 431.583C1073.22 420.262 1067.02 409.237 1060.42 398.508C1053.82 387.68 1046.73 377.245 1039.35 367.008C1031.97 356.77 1024.09 346.927 1015.92 337.28L999.969 350.864C1007.85 360.019 1015.33 369.567 1022.42 379.312C1029.51 389.058 1036.3 399.098 1042.6 409.434C1048.9 419.672 1054.81 430.205 1060.32 441.033L1032.26 455.208C1027.14 445.167 1021.63 435.323 1015.72 425.775C1009.81 416.227 1003.51 406.777 996.917 397.72C990.223 388.664 983.233 379.805 975.947 371.241C968.662 362.677 960.982 354.408 953.008 346.434L1049 250.458C1059.53 260.991 1069.58 271.819 1079.22 283.139C1088.87 294.459 1098.03 306.075 1106.79 318.084C1115.45 330.094 1123.72 342.398 1131.5 355.097C1139.28 367.697 1146.47 380.592 1153.26 393.881C1159.95 406.973 1166.16 420.459 1171.87 434.241C1177.48 447.923 1182.6 461.803 1187.23 475.978C1191.75 490.055 1195.79 504.328 1199.24 518.798C1202.68 533.072 1205.64 547.641 1207.9 562.406C1210.17 576.975 1211.84 591.741 1213.02 606.605L1213.41 606.211C1214.01 613.571 1214.66 632.339 1215 651Z" fill="black"/>
<path fill-rule="evenodd" clip-rule="evenodd" d="M363.081 185.883L423.728 284.419C433.278 278.512 443.123 273 453.165 267.881L434.262 230.475C445.289 224.864 456.513 219.647 467.933 214.922C479.353 210.197 490.971 205.964 502.687 202.125C514.402 198.384 526.315 195.037 538.425 192.084L548.27 233.034C559.198 230.475 570.225 228.211 581.449 226.537L559.691 92.1703C544.923 94.4344 530.352 97.3875 516.076 100.833C501.604 104.278 487.328 108.314 473.249 112.842C459.072 117.469 445.191 122.587 431.506 128.198C417.722 133.908 404.333 140.109 391.14 146.803C377.948 153.497 364.952 160.781 352.35 168.558L363.377 186.473L363.081 185.883ZM525.725 140.995L530.647 161.47C517.75 164.522 505.05 168.164 492.546 172.2C479.944 176.236 467.539 180.862 455.43 185.883C443.221 190.903 431.21 196.514 419.494 202.42L410.043 183.717L405.219 174.366C417.722 168.066 430.423 162.159 443.418 156.745C456.316 151.43 469.508 146.606 482.898 142.177C496.189 137.845 509.677 134.105 523.362 130.856L525.823 141.094L525.725 140.995Z" fill="black"/>
<path fill-rule="evenodd" clip-rule="evenodd" d="M781.208 241.205C791.94 244.748 802.573 248.587 812.91 252.919C823.346 257.25 833.585 261.975 843.627 267.094C853.669 272.212 863.514 277.725 873.064 283.631C882.713 289.537 892.066 295.837 901.123 302.433L908.517 309.116C918.025 317.71 932.702 316.965 941.292 307.453L948.085 299.48L961.671 283.336C967.382 274.636 964.961 262.955 956.263 257.241L941.144 247.308C941.144 247.308 951.504 252.907 960.97 258.429C968.602 262.882 979.368 260.548 983.823 252.919L997.114 234.117C1003.88 223.066 1001.44 208.715 991.395 200.525L981.165 192.183C981.165 192.183 956.847 175.252 944.147 167.475C931.545 159.698 918.549 152.512 905.357 145.72C892.164 139.027 878.676 132.727 864.991 127.116C851.306 121.406 837.425 116.287 823.247 111.759L813.698 141.783L781.208 241.205ZM889.407 257.447C896.748 261.92 903.94 266.642 910.982 271.542C915.747 274.856 922.31 273.845 925.745 269.167C929.212 264.445 928.171 257.794 923.361 254.452C915.906 249.272 908.321 244.275 900.533 239.531C889.801 232.936 878.775 226.734 867.453 221.025C856.229 215.316 844.71 210 832.994 205.177L828.958 214.823L824.921 224.569C836.046 229.195 847.073 234.216 857.804 239.728C868.536 245.241 879.168 251.147 889.407 257.447ZM916.777 212.756C925.294 217.924 933.649 223.414 941.803 229.108C946.561 232.43 953.123 231.415 956.552 226.734V226.636C959.97 221.97 958.939 215.406 954.185 212.111C945.557 206.133 936.736 200.376 927.804 194.841C915.891 187.458 903.683 180.666 891.18 174.267C878.676 167.869 865.976 162.061 852.98 156.647L848.944 166.294L844.907 176.039C857.312 181.256 869.52 186.867 881.531 192.97C893.641 199.172 905.357 205.669 916.777 212.756Z" fill="black"/>
<path d="M1182.51 692.934C1183.89 679.067 1184.07 664.786 1183.68 651H1214.6C1214.84 669.636 1214.46 687.261 1213.82 695.199C1212.74 710.063 1210.96 724.828 1208.7 739.397C1206.34 754.064 1203.48 768.633 1200.04 783.005C1196.59 797.475 1192.55 811.748 1188.02 825.825C1183.5 840 1178.38 853.88 1172.67 867.563C1167.05 881.245 1160.75 894.731 1154.06 907.922C1147.26 921.112 1140.08 934.106 1132.3 946.706C1124.52 959.405 1116.35 971.709 1107.59 983.719C1098.83 995.728 1089.67 1007.44 1080.02 1018.66C1070.37 1029.98 1060.33 1040.81 1049.8 1051.35C1039.26 1061.88 1028.43 1071.92 1017.11 1081.57C1005.79 1091.21 994.171 1100.37 982.16 1109.13L901.528 999.075C910.585 992.381 919.446 985.392 928.011 978.108L995.944 1057.84C1006.58 1048.69 1016.82 1039.24 1026.76 1029.3L952.92 955.467C960.895 947.494 968.574 939.225 975.859 930.661L1055.61 998.583C1064.66 987.952 1073.33 976.927 1081.6 965.606L996.928 903.591C1003.62 894.534 1009.83 885.183 1015.73 875.536L1105.32 930.661C1112.61 918.75 1119.5 906.544 1125.9 894.042C1132.3 881.541 1138.11 868.842 1143.52 855.848C1148.94 842.953 1153.76 829.763 1158.09 816.375C1162.33 803.086 1166.17 789.6 1169.42 775.917C1172.67 762.333 1175.42 748.65 1177.59 734.672L1177.68 734.062C1178.35 729.828 1178.8 726.992 1179.19 724.149C1179.98 718.381 1180.56 712.582 1182.3 695.02L1182.3 695.016L1182.51 692.934Z" fill="black"/>
<path d="M560.194 1210.91C545.524 1208.55 530.953 1205.7 516.579 1202.25L523.766 1171.54L545.918 1079.4L546.41 1080.48L548.872 1070.25C559.8 1072.8 570.826 1074.97 582.05 1076.74C593.175 1078.51 604.3 1079.79 615.622 1080.68C626.747 1081.57 637.971 1081.96 649.391 1081.96C660.812 1081.96 672.035 1081.57 683.16 1080.68L685.523 1111.98C673.512 1112.87 661.501 1113.36 649.293 1113.36C637.085 1113.36 624.975 1112.87 613.062 1111.98C600.854 1111 588.843 1109.62 577.029 1107.75L573.681 1128.42C586.086 1130.39 598.59 1131.87 611.29 1132.85C623.794 1133.84 636.396 1134.33 649.194 1134.33C661.993 1134.33 674.595 1133.84 687.099 1132.85L693.4 1216.33C678.73 1217.41 663.962 1218 648.998 1218V1165.53C635.411 1165.53 621.923 1165.04 608.632 1163.96C595.144 1162.87 581.755 1161.3 568.562 1159.23L560.194 1210.91Z" fill="black"/>
<path fill-rule="evenodd" clip-rule="evenodd" d="M933.919 1116.12L873.272 1017.58C863.722 1023.49 853.877 1029 843.835 1034.12L862.738 1071.52C851.711 1077.14 840.487 1082.35 829.067 1087.08C817.646 1091.8 806.029 1096.04 794.313 1099.87C782.597 1103.62 770.685 1106.96 758.575 1109.92L748.73 1068.97C737.802 1071.52 726.775 1073.79 715.551 1075.46L737.309 1209.83C752.077 1207.57 766.648 1204.61 780.924 1201.17C795.396 1197.72 809.672 1193.69 823.75 1189.16C837.928 1184.53 851.809 1179.41 865.494 1173.8C879.278 1168.09 892.667 1161.89 905.86 1155.2C919.052 1148.5 932.048 1141.22 944.65 1133.44L933.623 1115.53L933.919 1116.12ZM771.275 1161L766.353 1140.53C779.25 1137.48 791.95 1133.84 804.454 1129.8C817.056 1125.76 829.461 1121.14 841.57 1116.12C853.778 1111.1 865.79 1105.49 877.505 1099.58L886.957 1118.28L891.781 1127.63C879.278 1133.93 866.577 1139.84 853.581 1145.25C840.684 1150.57 827.492 1155.39 814.102 1159.82C800.811 1164.15 787.323 1167.9 773.638 1171.14L771.177 1160.91L771.275 1161Z" fill="black"/>
<path fill-rule="evenodd" clip-rule="evenodd" d="M515.792 1060.8C505.06 1057.25 494.427 1053.41 484.09 1049.08C473.654 1044.75 463.415 1040.02 453.373 1034.91C443.331 1029.79 433.485 1024.27 423.936 1018.37C414.287 1012.46 404.934 1006.16 395.877 999.567L388.483 992.884C378.975 984.29 364.298 985.035 355.708 994.547L348.915 1002.52L335.328 1018.66C329.618 1027.36 332.039 1039.04 340.737 1044.76L355.856 1054.69C355.856 1054.69 345.496 1049.09 336.03 1043.57C328.398 1039.12 317.632 1041.45 313.177 1049.08L299.886 1067.88C293.119 1078.93 295.562 1093.28 305.605 1101.47L315.835 1109.82C315.835 1109.82 340.153 1126.75 352.853 1134.52C365.455 1142.3 378.451 1149.49 391.643 1156.28C404.836 1162.97 418.324 1169.27 432.009 1174.88C445.694 1180.59 459.575 1185.71 473.752 1190.24L483.302 1160.22L515.792 1060.8ZM407.592 1044.55C400.252 1040.08 393.06 1035.36 386.018 1030.46C381.253 1027.14 374.69 1028.15 371.255 1032.83C367.788 1037.55 368.829 1044.21 373.639 1047.55C381.093 1052.73 388.679 1057.73 396.467 1062.47C407.199 1069.06 418.225 1075.27 429.547 1080.97C440.771 1086.68 452.29 1092 464.006 1096.82L468.042 1087.18L472.079 1077.43C460.954 1072.8 449.927 1067.78 439.196 1062.27C428.464 1056.76 417.832 1050.85 407.592 1044.55ZM380.223 1089.24C371.706 1084.08 363.35 1078.59 355.196 1072.89C350.439 1069.57 343.877 1070.59 340.448 1075.27V1075.36C337.03 1080.03 338.06 1086.59 342.815 1089.89C351.443 1095.87 360.264 1101.62 369.196 1107.16C381.109 1114.54 393.317 1121.33 405.82 1127.73C418.324 1134.13 431.024 1139.94 444.02 1145.35L448.056 1135.71L452.093 1125.96C439.688 1120.74 427.48 1115.13 415.469 1109.03C403.359 1102.83 391.643 1096.33 380.223 1089.24Z" fill="black"/>
<path d="M736.806 91.0875C751.476 93.45 766.047 96.3047 780.421 99.75L773.234 130.462L751.082 222.6L750.59 221.517L748.128 231.755C737.2 229.195 726.174 227.03 714.95 225.258C703.825 223.486 692.7 222.206 681.378 221.32C670.253 220.434 659.029 220.041 647.609 220.041C636.188 220.041 624.964 220.434 613.839 221.32L611.476 190.017C623.488 189.131 635.499 188.639 647.707 188.639C659.915 188.639 672.025 189.131 683.937 190.017C696.146 191.002 708.157 192.38 719.971 194.25L723.318 173.578C710.913 171.609 698.41 170.133 685.71 169.148C673.206 168.164 660.604 167.672 647.805 167.672C635.007 167.672 622.405 168.164 609.901 169.148L603.6 85.6734C618.27 84.5906 633.038 84 648.002 84V136.467C661.589 136.467 675.077 136.959 688.368 138.042C701.856 139.125 715.245 140.7 728.438 142.767L736.806 91.0875Z" stroke="black" stroke-width="3"/>
<path d="M114.489 609.066C113.112 622.933 112.926 637.214 113.324 651H113.388C113.732 668.497 114.35 686.063 114.894 693.033C115.977 707.109 117.552 720.989 119.718 734.77C121.884 748.748 124.64 762.431 127.889 776.016C131.138 789.698 134.88 803.184 139.211 816.473C143.543 829.861 148.466 843.052 153.782 855.947C159.197 868.941 165.006 881.737 171.405 894.141C177.805 906.642 184.696 918.848 191.982 930.759C199.267 942.769 207.045 954.384 215.315 965.705C223.487 977.025 232.249 988.05 241.306 998.681L257.256 985.097C248.493 974.859 240.224 964.327 232.249 953.4C224.373 942.572 216.89 931.35 209.802 919.833C202.713 908.316 196.117 896.602 190.013 884.592L218.072 870.417C223.782 881.737 229.984 892.762 236.581 903.492C243.177 914.32 250.266 924.755 257.65 934.992C265.033 945.23 272.91 955.073 281.081 964.72L297.03 951.136C289.154 941.981 281.672 932.433 274.583 922.687C267.495 912.942 260.702 902.901 254.401 892.566C248.1 882.328 242.193 871.795 236.679 860.967L264.738 846.792C269.858 856.833 275.371 866.677 281.278 876.225C287.185 885.773 293.486 895.223 300.083 904.28C306.777 913.336 313.767 922.195 321.053 930.759C328.338 939.323 336.018 947.592 343.992 955.566L248.001 1051.54C237.467 1041.01 227.425 1030.18 217.776 1018.86C208.128 1007.54 198.972 995.925 190.21 983.916C181.546 971.906 173.276 959.601 165.498 946.903C157.72 934.303 150.533 921.408 143.74 908.119C137.045 895.026 130.843 881.541 125.133 867.759C119.521 854.077 114.401 840.197 109.774 826.022C105.245 811.945 101.209 797.672 97.7629 783.201C94.3171 768.928 91.3637 754.359 89.0992 739.594C86.8348 725.025 85.161 710.259 83.9796 695.395L83.5859 695.789C82.9891 688.429 82.3419 669.661 82 651H82.4007C82.1621 632.363 82.542 614.739 83.1813 606.801C84.2643 591.937 86.0365 577.172 88.3009 562.603C90.6637 547.936 93.5188 533.367 96.9647 518.995C100.41 504.525 104.447 490.251 108.976 476.175C113.505 462 118.624 448.12 124.334 434.437C129.946 420.755 136.247 407.269 142.942 394.078C149.735 380.887 156.922 367.894 164.7 355.294C172.478 342.595 180.649 330.291 189.411 318.281C198.174 306.272 207.33 294.558 216.978 283.336C226.626 272.016 236.669 261.187 247.203 250.655C257.737 240.122 268.567 230.081 279.889 220.434C291.211 210.787 302.828 201.633 314.84 192.872L395.472 302.925C386.414 309.619 377.554 316.608 368.988 323.892L301.056 244.158C290.423 253.312 280.184 262.762 270.241 272.705L344.08 346.533C336.105 354.506 328.426 362.775 321.141 371.339L241.394 303.417C232.337 314.048 223.673 325.073 215.403 336.394L300.072 398.409C293.377 407.466 287.175 416.817 281.267 426.464L191.676 371.339C184.39 383.25 177.499 395.456 171.099 407.958C164.7 420.459 158.891 433.158 153.476 446.152C148.061 459.047 143.237 472.237 138.905 485.625C134.672 498.914 130.832 512.4 127.583 526.083C124.334 539.667 121.578 553.35 119.412 567.328L119.316 567.938C118.65 572.172 118.205 575.008 117.812 577.851C117.016 583.619 116.44 589.418 114.696 606.98L114.696 606.981L114.696 606.984L114.489 609.066Z" stroke="black" stroke-width="3"/>
<path d="M1215 651H1183.61C1183.27 633.503 1182.65 615.936 1182.11 608.967C1181.02 594.891 1179.45 581.011 1177.28 567.23C1175.12 553.252 1172.36 539.569 1169.11 525.984C1165.86 512.302 1162.12 498.816 1157.79 485.527C1153.46 472.139 1148.53 458.948 1143.22 446.053C1137.8 433.059 1131.99 420.262 1125.59 407.859C1119.2 395.358 1112.3 383.152 1105.02 371.241C1097.73 359.231 1089.95 347.616 1081.68 336.295C1073.51 324.975 1064.75 313.95 1055.69 303.319L1039.74 316.903C1048.51 327.141 1056.78 337.673 1064.75 348.6C1072.63 359.428 1080.11 370.65 1087.2 382.167C1094.29 393.684 1100.88 405.398 1106.99 417.408L1078.93 431.583C1073.22 420.262 1067.02 409.237 1060.42 398.508C1053.82 387.68 1046.73 377.245 1039.35 367.008C1031.97 356.77 1024.09 346.927 1015.92 337.28L999.969 350.864C1007.85 360.019 1015.33 369.567 1022.42 379.312C1029.51 389.058 1036.3 399.098 1042.6 409.434C1048.9 419.672 1054.81 430.205 1060.32 441.033L1032.26 455.208C1027.14 445.167 1021.63 435.323 1015.72 425.775C1009.81 416.227 1003.51 406.777 996.917 397.72C990.223 388.664 983.233 379.805 975.947 371.241C968.662 362.677 960.982 354.408 953.008 346.434L1049 250.458C1059.53 260.991 1069.58 271.819 1079.22 283.139C1088.87 294.459 1098.03 306.075 1106.79 318.084C1115.45 330.094 1123.72 342.398 1131.5 355.097C1139.28 367.697 1146.47 380.592 1153.26 393.881C1159.95 406.973 1166.16 420.459 1171.87 434.241C1177.48 447.923 1182.6 461.803 1187.23 475.978C1191.75 490.055 1195.79 504.328 1199.24 518.798C1202.68 533.072 1205.64 547.641 1207.9 562.406C1210.17 576.975 1211.84 591.741 1213.02 606.605L1213.41 606.211C1214.01 613.571 1214.66 632.339 1215 651Z" stroke="black" stroke-width="3"/>
<path fill-rule="evenodd" clip-rule="evenodd" d="M363.081 185.883L423.728 284.419C433.278 278.512 443.123 273 453.165 267.881L434.262 230.475C445.289 224.864 456.513 219.647 467.933 214.922C479.353 210.197 490.971 205.964 502.687 202.125C514.402 198.384 526.315 195.037 538.425 192.084L548.27 233.034C559.198 230.475 570.225 228.211 581.449 226.537L559.691 92.1703C544.923 94.4344 530.352 97.3875 516.076 100.833C501.604 104.278 487.328 108.314 473.249 112.842C459.072 117.469 445.191 122.587 431.506 128.198C417.722 133.908 404.333 140.109 391.14 146.803C377.948 153.497 364.952 160.781 352.35 168.558L363.377 186.473L363.081 185.883ZM525.725 140.995L530.647 161.47C517.75 164.522 505.05 168.164 492.546 172.2C479.944 176.236 467.539 180.862 455.43 185.883C443.221 190.903 431.21 196.514 419.494 202.42L410.043 183.717L405.219 174.366C417.722 168.066 430.423 162.159 443.418 156.745C456.316 151.43 469.508 146.606 482.898 142.177C496.189 137.845 509.677 134.105 523.362 130.856L525.823 141.094L525.725 140.995Z" stroke="black" stroke-width="3"/>
<path fill-rule="evenodd" clip-rule="evenodd" d="M781.208 241.205C791.94 244.748 802.573 248.587 812.91 252.919C823.346 257.25 833.585 261.975 843.627 267.094C853.669 272.212 863.514 277.725 873.064 283.631C882.713 289.537 892.066 295.837 901.123 302.433L908.517 309.116C918.025 317.71 932.702 316.965 941.292 307.453L948.085 299.48L961.671 283.336C967.382 274.636 964.961 262.955 956.263 257.241L941.144 247.308C941.144 247.308 951.504 252.907 960.97 258.429C968.602 262.882 979.368 260.548 983.823 252.919L997.114 234.117C1003.88 223.066 1001.44 208.715 991.395 200.525L981.165 192.183C981.165 192.183 956.847 175.252 944.147 167.475C931.545 159.698 918.549 152.512 905.357 145.72C892.164 139.027 878.676 132.727 864.991 127.116C851.306 121.406 837.425 116.287 823.247 111.759L813.698 141.783L781.208 241.205ZM889.407 257.447C896.748 261.92 903.94 266.642 910.982 271.542C915.747 274.856 922.31 273.845 925.745 269.167C929.212 264.445 928.171 257.794 923.361 254.452C915.906 249.272 908.321 244.275 900.533 239.531C889.801 232.936 878.775 226.734 867.453 221.025C856.229 215.316 844.71 210 832.994 205.177L828.958 214.823L824.921 224.569C836.046 229.195 847.073 234.216 857.804 239.728C868.536 245.241 879.168 251.147 889.407 257.447ZM916.777 212.756C925.294 217.924 933.649 223.414 941.803 229.108C946.561 232.43 953.123 231.415 956.552 226.734V226.636C959.97 221.97 958.939 215.406 954.185 212.111C945.557 206.133 936.736 200.376 927.804 194.841C915.891 187.458 903.683 180.666 891.18 174.267C878.676 167.869 865.976 162.061 852.98 156.647L848.944 166.294L844.907 176.039C857.312 181.256 869.52 186.867 881.531 192.97C893.641 199.172 905.357 205.669 916.777 212.756Z" stroke="black" stroke-width="3"/>
<path d="M1182.51 692.934C1183.89 679.067 1184.07 664.786 1183.68 651H1214.6C1214.84 669.636 1214.46 687.261 1213.82 695.199C1212.74 710.063 1210.96 724.828 1208.7 739.397C1206.34 754.064 1203.48 768.633 1200.04 783.005C1196.59 797.475 1192.55 811.748 1188.02 825.825C1183.5 840 1178.38 853.88 1172.67 867.563C1167.05 881.245 1160.75 894.731 1154.06 907.922C1147.26 921.112 1140.08 934.106 1132.3 946.706C1124.52 959.405 1116.35 971.709 1107.59 983.719C1098.83 995.728 1089.67 1007.44 1080.02 1018.66C1070.37 1029.98 1060.33 1040.81 1049.8 1051.35C1039.26 1061.88 1028.43 1071.92 1017.11 1081.57C1005.79 1091.21 994.171 1100.37 982.16 1109.13L901.528 999.075C910.585 992.381 919.446 985.392 928.011 978.108L995.944 1057.84C1006.58 1048.69 1016.82 1039.24 1026.76 1029.3L952.92 955.467C960.895 947.494 968.574 939.225 975.859 930.661L1055.61 998.583C1064.66 987.952 1073.33 976.927 1081.6 965.606L996.928 903.591C1003.62 894.534 1009.83 885.183 1015.73 875.536L1105.32 930.661C1112.61 918.75 1119.5 906.544 1125.9 894.042C1132.3 881.541 1138.11 868.842 1143.52 855.848C1148.94 842.953 1153.76 829.763 1158.09 816.375C1162.33 803.086 1166.17 789.6 1169.42 775.917C1172.67 762.333 1175.42 748.65 1177.59 734.672L1177.68 734.062C1178.35 729.828 1178.8 726.992 1179.19 724.149C1179.98 718.381 1180.56 712.582 1182.3 695.02L1182.3 695.016L1182.51 692.934Z" stroke="black" stroke-width="3"/>
<path d="M560.194 1210.91C545.524 1208.55 530.953 1205.7 516.579 1202.25L523.766 1171.54L545.918 1079.4L546.41 1080.48L548.872 1070.25C559.8 1072.8 570.826 1074.97 582.05 1076.74C593.175 1078.51 604.3 1079.79 615.622 1080.68C626.747 1081.57 637.971 1081.96 649.391 1081.96C660.812 1081.96 672.035 1081.57 683.16 1080.68L685.523 1111.98C673.512 1112.87 661.501 1113.36 649.293 1113.36C637.085 1113.36 624.975 1112.87 613.062 1111.98C600.854 1111 588.843 1109.62 577.029 1107.75L573.681 1128.42C586.086 1130.39 598.59 1131.87 611.29 1132.85C623.794 1133.84 636.396 1134.33 649.194 1134.33C661.993 1134.33 674.595 1133.84 687.099 1132.85L693.4 1216.33C678.73 1217.41 663.962 1218 648.998 1218V1165.53C635.411 1165.53 621.923 1165.04 608.632 1163.96C595.144 1162.87 581.755 1161.3 568.562 1159.23L560.194 1210.91Z" stroke="black" stroke-width="3"/>
<path fill-rule="evenodd" clip-rule="evenodd" d="M933.919 1116.12L873.272 1017.58C863.722 1023.49 853.877 1029 843.835 1034.12L862.738 1071.52C851.711 1077.14 840.487 1082.35 829.067 1087.08C817.646 1091.8 806.029 1096.04 794.313 1099.87C782.597 1103.62 770.685 1106.96 758.575 1109.92L748.73 1068.97C737.802 1071.52 726.775 1073.79 715.551 1075.46L737.309 1209.83C752.077 1207.57 766.648 1204.61 780.924 1201.17C795.396 1197.72 809.672 1193.69 823.75 1189.16C837.928 1184.53 851.809 1179.41 865.494 1173.8C879.278 1168.09 892.667 1161.89 905.86 1155.2C919.052 1148.5 932.048 1141.22 944.65 1133.44L933.623 1115.53L933.919 1116.12ZM771.275 1161L766.353 1140.53C779.25 1137.48 791.95 1133.84 804.454 1129.8C817.056 1125.76 829.461 1121.14 841.57 1116.12C853.778 1111.1 865.79 1105.49 877.505 1099.58L886.957 1118.28L891.781 1127.63C879.278 1133.93 866.577 1139.84 853.581 1145.25C840.684 1150.57 827.492 1155.39 814.102 1159.82C800.811 1164.15 787.323 1167.9 773.638 1171.14L771.177 1160.91L771.275 1161Z" stroke="black" stroke-width="3"/>
<path fill-rule="evenodd" clip-rule="evenodd" d="M515.792 1060.8C505.06 1057.25 494.427 1053.41 484.09 1049.08C473.654 1044.75 463.415 1040.02 453.373 1034.91C443.331 1029.79 433.485 1024.27 423.936 1018.37C414.287 1012.46 404.934 1006.16 395.877 999.567L388.483 992.884C378.975 984.29 364.298 985.035 355.708 994.547L348.915 1002.52L335.328 1018.66C329.618 1027.36 332.039 1039.04 340.737 1044.76L355.856 1054.69C355.856 1054.69 345.496 1049.09 336.03 1043.57C328.398 1039.12 317.632 1041.45 313.177 1049.08L299.886 1067.88C293.119 1078.93 295.562 1093.28 305.605 1101.47L315.835 1109.82C315.835 1109.82 340.153 1126.75 352.853 1134.52C365.455 1142.3 378.451 1149.49 391.643 1156.28C404.836 1162.97 418.324 1169.27 432.009 1174.88C445.694 1180.59 459.575 1185.71 473.752 1190.24L483.302 1160.22L515.792 1060.8ZM407.592 1044.55C400.252 1040.08 393.06 1035.36 386.018 1030.46C381.253 1027.14 374.69 1028.15 371.255 1032.83C367.788 1037.55 368.829 1044.21 373.639 1047.55C381.093 1052.73 388.679 1057.73 396.467 1062.47C407.199 1069.06 418.225 1075.27 429.547 1080.97C440.771 1086.68 452.29 1092 464.006 1096.82L468.042 1087.18L472.079 1077.43C460.954 1072.8 449.927 1067.78 439.196 1062.27C428.464 1056.76 417.832 1050.85 407.592 1044.55ZM380.223 1089.24C371.706 1084.08 363.35 1078.59 355.196 1072.89C350.439 1069.57 343.877 1070.59 340.448 1075.27V1075.36C337.03 1080.03 338.06 1086.59 342.815 1089.89C351.443 1095.87 360.264 1101.62 369.196 1107.16C381.109 1114.54 393.317 1121.33 405.82 1127.73C418.324 1134.13 431.024 1139.94 444.02 1145.35L448.056 1135.71L452.093 1125.96C439.688 1120.74 427.48 1115.13 415.469 1109.03C403.359 1102.83 391.643 1096.33 380.223 1089.24Z" stroke="black" stroke-width="3"/>
<mask id="path-4-inside-1_9_100" fill="white">
<path d="M898.712 651.627C872.765 718.833 822.732 773.976 758.357 806.315C693.983 838.654 619.876 845.875 550.469 826.571L566.483 768.991C621.586 784.317 680.421 778.584 731.528 752.91C782.636 727.235 822.358 683.457 842.958 630.101L898.712 651.627Z"/>
</mask>
<path d="M898.712 651.627C872.765 718.833 822.732 773.976 758.357 806.315C693.983 838.654 619.876 845.875 550.469 826.571L566.483 768.991C621.586 784.317 680.421 778.584 731.528 752.91C782.636 727.235 822.358 683.457 842.958 630.101L898.712 651.627Z" fill="#D9D9D9" stroke="black" stroke-width="96" mask="url(#path-4-inside-1_9_100)"/>
<path d="M486.096 547C485.379 550.213 485 553.558 485 557C485 582.678 506.094 603 531.5 603C556.906 603 578 582.678 578 557C578 553.558 577.621 550.213 576.904 547H486.096Z" fill="black"/>
<path d="M716.09 547C715.376 550.219 715 553.566 715 557C715 582.405 735.595 603 761 603C786.405 603 807 582.405 807 557C807 553.566 806.624 550.219 805.91 547H716.09Z" fill="black"/>
</svg>
