<svg width="1301" height="1301" viewBox="0 0 1301 1301" fill="none" xmlns="http://www.w3.org/2000/svg">
<path d="M650.5 1284.1C565 1284.1 482 1267.4 403.9 1234.3C328.5 1202.4 260.7 1156.7 202.5 1098.5C144.3 1040.3 98.5999 972.6 66.6999 897.1C33.6999 819 16.8999 736 16.8999 650.5C16.8999 565 33.5999 482 66.6999 403.9C98.5999 328.5 144.3 260.7 202.5 202.5C260.7 144.3 328.4 98.5999 403.9 66.6999C482 33.6999 565 16.8999 650.5 16.8999C736 16.8999 819 33.5999 897.1 66.6999C972.5 98.5999 1040.3 144.3 1098.5 202.5C1156.7 260.7 1202.4 328.4 1234.3 403.9C1267.3 482 1284.1 565 1284.1 650.5C1284.1 736 1267.4 819 1234.3 897.1C1202.4 972.5 1156.7 1040.3 1098.5 1098.5C1040.3 1156.7 972.6 1202.4 897.1 1234.3C819 1267.3 736 1284.1 650.5 1284.1Z" fill="#8C52FF"/>
<path d="M543.4 995.5C541.4 994.9 539.3 994.2 537.3 993.5L536.2 993.1C534.4 992.5 532.7 991.9 530.9 991.3L529.7 990.9C525.6 989.4 521.4 987.9 517.4 986.3L515.7 985.6C514.3 985 512.8 984.4 511.4 983.9C510.7 983.6 509.9 983.3 509.2 983C507.9 982.5 506.7 981.9 505.4 981.4L504.9 981.2C504.3 980.9 503.7 980.7 503.1 980.4C501.8 979.8 500.5 979.2 499.2 978.6L498.4 978.2C498 978 497.6 977.8 497.2 977.6C495.4 976.8 493.6 975.9 491.8 975C491.1 974.7 490.4 974.3 489.7 974L488.5 973.4C487.7 973 487 972.6 486.2 972.2C485.1 971.6 484 971.1 482.9 970.5C482.2 970.1 481.5 969.7 480.7 969.4C479.5 968.8 478.3 968.1 477.1 967.5L475.6 966.7C461.6 958.9 447.9 950.1 435 940.5L421.9 930.5L408.1 947.5L324.6 1049.7C313.2 1040.4 302.1 1030.5 291.4 1020.2L285.7 1014.5C256.3 985.1 230.5 952.3 209.1 917.1L208.9 916.8C208.1 915.6 207.4 914.3 206.6 913C206.1 912.2 205.7 911.4 205.2 910.6C204.9 910 204.5 909.4 204.1 908.8L203.5 907.9C203.4 907.7 203.3 907.5 203.2 907.3C201.9 905.1 200.6 902.8 199.4 900.6C199.4 900.6 199.4 900.6 199.4 900.5L199.1 899.9C198.5 898.7 197.8 897.6 197.2 896.4C197 896.1 196.9 895.8 196.7 895.5C196.1 894.3 195.4 893.1 194.8 891.9L194.1 890.6C192.8 888.1 191.5 885.6 190.3 883.2L189.4 881.3C188.2 879 187.1 876.6 186 874.3C185.7 873.8 185.5 873.2 185.2 872.6L184.9 872C183.8 869.8 182.8 867.5 181.8 865.3C181.5 864.7 181.2 864 180.9 863.4L180.6 862.7C179.6 860.5 178.7 858.4 177.7 856.2C177.4 855.5 177.1 854.9 176.9 854.2L176.5 853.3C175.6 851.2 174.7 849.1 173.8 847C173.5 846.3 173.2 845.6 172.9 844.8L172.5 843.9C171.7 841.8 170.8 839.8 170 837.7C169.7 836.9 169.4 836.1 169.1 835.3L168.7 834.4C167.9 832.4 167.2 830.4 166.5 828.4C166.2 827.5 165.9 826.6 165.5 825.7L165.1 824.5C164.4 822.6 163.8 820.8 163.1 818.9C162.7 817.9 162.4 816.8 162.1 815.8L161.4 813.7C160.9 812.3 160.4 810.8 160 809.4C159.6 808.3 159.3 807.1 158.9 806L158.3 803.9C157.9 802.6 157.5 801.4 157.1 800.1C156.5 798.1 155.9 796.2 155.4 794.2L155 793C154.8 792.3 154.6 791.6 154.4 790.9C153.7 788.3 153 785.7 152.3 783.2L151.9 781.7C140.9 739.3 135.3 695.4 135.3 651.2C135.3 607 141.8 556.4 154.6 511L154.9 510C155.8 507 156.6 504.2 157.4 501.6C157.6 501 157.8 500.4 157.9 499.9L158.4 498.2C159 496.2 159.6 494.2 160.3 492.3C160.6 491.5 160.8 490.7 161.1 489.9L162 487.3C162.5 485.8 163 484.2 163.5 482.7C163.9 481.5 164.3 480.3 164.8 479.1L165.8 476.3C166.2 475.2 166.6 474.2 166.9 473.1C167.4 471.7 168 470.3 168.5 468.8L169.5 466.2C169.8 465.3 170.2 464.5 170.5 463.6C171.2 461.9 171.8 460.2 172.5 458.6L173.4 456.4C173.7 455.7 174 454.9 174.3 454.2C175.1 452.3 175.9 450.4 176.7 448.6L177.5 446.7C177.8 446.1 178 445.4 178.3 444.8C179.3 442.6 180.3 440.4 181.3 438.1L181.8 436.9C182 436.4 182.2 435.9 182.5 435.4C183.7 432.7 185 430 186 428L186.4 427.1C186.5 426.8 186.7 426.5 186.8 426.2C188.2 423.3 189.7 420.3 191.2 417.3V417.1C215.8 369.1 247.7 325.3 286.2 286.8C298.3 274.7 311.2 263 324.5 252.1L409.9 377.7L431.4 363.1L431.6 363.4L438.1 358.7C439.1 357.9 440.2 357.2 441.3 356.4L450.3 350.3L363.8 222.9C370.8 218.2 377.9 213.7 385.2 209.3L553.4 302.9L556.5 302.1C580.4 295.7 605.1 291.7 629.9 290.3L638.3 289.8L617.1 89.8L609.4 90.4C597 91.3 584.7 92.6 572.8 94.3L565.1 95.4L581.6 249.7L568.3 251.8L391.2 152.3L387.3 154.4C366.4 165.5 346 178.1 326.6 191.7C326.6 191.6 320.1 196.3 320.1 196.3C299.7 211.1 280.3 227.4 262.1 244.8L261.4 244.1L255.5 249.9C212.4 292.4 176.6 341.2 149.2 395V395.2C149.1 395.2 149.1 395.2 149.1 395.2L148.7 395.9C147 399.2 145.6 402.1 144.3 404.8C144 405.5 143.7 406.1 143.4 406.8L142.6 408.5C141.6 410.6 140.6 412.7 139.6 414.8C139.1 415.9 138.6 416.9 138.2 418L136.9 420.9C136.3 422.2 135.7 423.6 135.1 424.9C134.4 426.4 133.8 427.9 133.2 429.4L132 432.2C131.6 433.2 131.2 434.1 130.8 435.1C129.9 437.2 129.1 439.2 128.3 441.3L127.5 443.2C127.2 443.9 126.9 444.6 126.6 445.3C125.5 448.1 124.5 450.8 123.5 453.4L123.1 454.3C122.9 454.7 122.8 455.2 122.6 455.6C121.5 458.7 120.3 461.9 119.1 465.3L118.9 465.9C88.7 552.9 80.4 647 94.8 738.2C98.2 760 103 781.8 109.1 803.2V803.4C110.1 806.8 111.1 810.2 112.1 813.4L112.6 815C113.6 818.3 114.5 821 115.3 823.5L115.5 824C115.6 824.4 115.8 824.8 115.9 825.2L116.2 826C117.1 828.6 117.9 831.2 118.8 833.8C119.1 834.6 119.4 835.4 119.6 836.2L120 837.4C120.8 839.6 121.6 841.9 122.4 844.1C122.8 845.1 123.2 846.2 123.6 847.2L124 848.3C124.8 850.3 125.5 852.3 126.3 854.3C126.8 855.6 127.3 856.8 127.8 858.1L128.2 859C128.9 860.8 129.7 862.7 130.4 864.5C131 866 131.7 867.5 132.3 869.1L132.5 869.5C133.2 871.2 133.9 872.9 134.7 874.6C135.5 876.4 136.3 878.1 137 879.9V880.1C137.8 881.6 138.4 883.1 139.1 884.5C140 886.4 140.9 888.3 141.7 890.2L141.9 890.6C142.5 891.8 143.1 893.1 143.7 894.3C144.7 896.3 145.7 898.3 146.7 900.4L147 901C147.5 902 148 903 148.5 904.1C149.6 906.3 150.8 908.5 151.9 910.7L152.3 911.4C152.7 912.1 153.1 912.9 153.5 913.6C154.8 916 156.1 918.5 157.4 920.9L158.6 923C158.7 923.2 158.9 923.5 159 923.7C159 923.7 159.1 923.9 159.2 924C160.5 926.4 162 928.9 163.5 931.7L164.4 933.2C166.1 936.1 167.8 939 169.6 942L169.8 942.3C199.1 990.6 235.3 1034.1 277.6 1071.7L283.8 1077.2L284 1076.9C295.5 1086.8 307.5 1096.2 319.9 1105.2C389.2 1155.6 470.2 1189.8 554.5 1204.3C554.5 1204.4 562.4 1205.7 562.4 1205.7C590.4 1210.1 619 1212.4 647.5 1212.6L644.6 1011.9C644.6 1011.9 577.211 1005.92 543.4 995.5ZM595 1168C509.8 1160.4 439.3 1133 368 1085.9L434 1000C434.6 1000.4 437.9 1002.5 438.5 1002.9L439.6 1003.6C441.1 1004.5 442.5 1005.4 444 1006.3C444.5 1006.6 444.9 1006.8 445.4 1007.1L446.7 1007.8C447.7 1008.4 448.7 1009 449.7 1009.5C450.7 1010.1 451.7 1010.6 452.7 1011.2L454 1011.9C454.5 1012.2 455 1012.4 455.5 1012.7C461.6 1016.1 467.9 1019.3 474.3 1022.4L474.8 1022.6C476.8 1023.6 478.7 1024.5 480.7 1025.4L481.4 1025.7C483.3 1026.6 485.2 1027.5 487.2 1028.3L487.9 1028.6C489.9 1029.5 491.8 1030.3 493.8 1031.2L494.3 1031.4C496.4 1032.3 498.6 1033.2 500.6 1034H500.8C529.1 1045.4 558.8 1053.6 589 1058.4C595.52 1059.39 593.434 1058.84 600 1059.5L595 1168ZM1191.8 497.9C1190.8 494.4 1189.8 491 1188.9 487.8L1188.4 486.2C1187.4 482.9 1186.6 480.2 1185.7 477.7V477.2C1185.4 476.8 1185.3 476.4 1185.2 476C1185.2 475.7 1185 475.4 1184.9 475.1C1184 472.5 1183.2 469.9 1182.3 467.3C1182 466.5 1181.7 465.7 1181.5 464.9L1181.1 463.7C1180.3 461.5 1179.5 459.2 1178.7 457C1178.3 455.9 1177.9 454.9 1177.5 453.9L1177.1 452.9C1176.3 450.9 1175.6 448.9 1174.8 446.9C1174.3 445.6 1173.8 444.4 1173.3 443.1L1173 442.3C1172.3 440.5 1171.5 438.6 1170.8 436.8C1170.2 435.2 1169.5 433.7 1168.9 432.2L1168.7 431.8C1168 430.1 1167.3 428.4 1166.6 426.8C1165.8 425 1165 423.3 1164.3 421.5V421.3C1163.5 419.8 1162.9 418.4 1162.2 416.9C1161.3 415 1160.4 413.1 1159.6 411.2L1159.4 410.7C1158.8 409.5 1158.2 408.2 1157.6 407C1156.6 405 1155.6 402.9 1154.6 400.9L1154.4 400.6C1153.9 399.5 1153.3 398.4 1152.7 397.3C1151.6 395.1 1150.4 392.9 1149.3 390.7L1149 390.1C1148.6 389.3 1148.2 388.5 1147.8 387.7C1146.5 385.3 1145.2 382.8 1143.9 380.4L1142.7 378.3C1142.6 378.1 1142.5 377.9 1142.4 377.7C1142.4 377.6 1142.3 377.5 1142.2 377.3C1140.9 374.9 1139.4 372.4 1137.9 369.6L1137 368C1135.3 365.1 1133.6 362.2 1131.8 359.2L1131.6 358.9C1103.9 313.1 1069.8 271.5 1030.2 235.3L1024 229.6L1023.8 229.9C1010.3 218 996.2 206.7 981.5 196C912.2 145.6 831.2 111.4 746.9 96.9C746.9 96.8 739 95.5 739 95.5C708.7 90.7 688.4 88.3 661 88.1H652.8L659.5 287.1C692.647 287.1 720.023 293.729 751.6 303.5L758 305.5C760 306.1 762.1 306.8 764.1 307.5L765.3 307.9C767.1 308.5 768.8 309.1 770.6 309.7L771.8 310.1C775.9 311.6 780.1 313.1 784.1 314.7L785.8 315.4C787.2 316 788.7 316.6 790.1 317.1C790.8 317.4 791.6 317.7 792.3 318C793.6 318.5 794.8 319.1 796.1 319.6L796.6 319.8C797.2 320.1 797.8 320.3 798.4 320.6C799.7 321.2 801 321.8 802.3 322.4L803.1 322.8C803.5 323 803.9 323.2 804.3 323.4C806.1 324.2 807.9 325.1 809.7 326C810.4 326.4 811.2 326.7 811.9 327.1L812.8 327.5C813.6 327.9 814.5 328.3 815.3 328.7C816.4 329.3 817.5 329.8 818.6 330.4C819.3 330.8 820 331.2 820.8 331.5C822 332.1 823.2 332.8 824.4 333.4L825.9 334.2C839.9 342 853.6 350.8 866.5 360.3L879.6 370.3L893.4 353.3L976.9 251.1C988.3 260.4 999.4 270.3 1010.1 280.6L1015.8 286.3C1045.2 315.7 1071 348.5 1092.4 383.8V384C1093.3 385.3 1094.1 386.5 1094.8 387.8C1095.3 388.6 1095.8 389.4 1096.2 390.2C1096.5 390.8 1096.9 391.4 1097.2 392L1097.7 392.9C1097.8 393.1 1097.9 393.3 1098 393.5C1099.3 395.8 1100.6 398 1101.8 400.3L1102.1 400.9C1102.8 402.1 1103.4 403.4 1104.1 404.6C1104.2 404.8 1104.3 405 1104.4 405.2C1105.1 406.4 1105.7 407.7 1106.4 408.9L1107.1 410.2C1108.4 412.7 1109.7 415.2 1110.9 417.6L1111.8 419.5C1113 421.8 1114.1 424.2 1115.2 426.5C1115.5 427.1 1115.7 427.6 1116 428.2L1116.3 428.8C1117.4 431 1118.4 433.3 1119.4 435.5C1119.7 436.1 1120 436.8 1120.3 437.4L1120.6 438.1C1121.6 440.3 1122.5 442.4 1123.5 444.6C1123.8 445.3 1124.1 446 1124.4 446.7L1124.7 447.4C1125.6 449.5 1126.5 451.6 1127.4 453.7C1127.7 454.4 1128 455.2 1128.3 455.9L1128.6 456.8C1129.4 458.9 1130.3 460.9 1131.1 463C1131.4 463.8 1131.7 464.5 1132 465.3L1132.4 466.3C1133.2 468.3 1133.9 470.3 1134.6 472.3C1134.9 473.2 1135.2 474 1135.5 474.9L1136 476.4C1136.6 478.2 1137.3 479.9 1137.9 481.7C1138.3 482.8 1138.6 483.8 1139 484.9L1139.7 487C1140.2 488.4 1140.6 489.8 1141.1 491.3C1141.4 492.4 1141.8 493.5 1142.1 494.6L1142.8 496.9C1143.2 498.1 1143.6 499.4 1144 500.6C1144.6 502.5 1145.1 504.4 1145.7 506.3L1146.1 507.7C1146.3 508.4 1146.5 509.1 1146.7 509.9C1147.4 512.5 1148.1 515.1 1148.8 517.6L1149.2 519.1C1160.2 561.5 1165.8 605.4 1165.8 649.6C1165.8 693.8 1159.3 744.4 1146.5 789.8L1146.2 790.8C1145.3 793.9 1144.5 796.6 1143.7 799.2C1143.5 799.8 1143.3 800.4 1143.2 800.9L1142.7 802.5C1142.1 804.5 1141.5 806.5 1140.8 808.5C1140.5 809.3 1140.3 810.1 1140 810.9L1139.1 813.4C1138.6 814.9 1138.1 816.5 1137.5 818C1137.1 819.2 1136.7 820.4 1136.2 821.5L1135.2 824.3C1134.8 825.4 1134.4 826.5 1134 827.6C1133.5 829 1132.9 830.4 1132.4 831.9L1131.4 834.5C1131.1 835.4 1130.7 836.3 1130.4 837.1C1129.8 838.7 1129.1 840.3 1128.5 841.9L1127.5 844.3C1127.2 845 1126.9 845.8 1126.6 846.5C1125.8 848.4 1125 850.3 1124.2 852.2L1123.4 854C1123.1 854.6 1122.9 855.2 1122.6 855.9C1121.6 858.1 1120.6 860.3 1119.6 862.6L1119.1 863.8C1118.9 864.3 1118.7 864.8 1118.4 865.2C1117.3 867.7 1116.1 870.2 1114.9 872.6L1114.5 873.5C1114.4 873.8 1114.2 874.1 1114.1 874.4C1112.7 877.4 1111.2 880.4 1109.7 883.3V883.5C1085.1 931.5 1053.2 975.3 1014.7 1013.8C976.2 1052.3 989.7 1037.6 976.4 1048.5L891 922.9L869.5 937.5L869.3 937.2L862.8 941.9C861.8 942.6 860.7 943.4 859.7 944.1L850.6 950.3L937.1 1077.7C930.1 1082.4 923 1086.9 915.7 1091.3L747.5 997.7L744.4 998.5C720.5 1004.9 695.8 1008.9 671 1010.3L662.6 1010.8L683.8 1210.8L691.5 1210.2C703.9 1209.3 716.2 1208 728.1 1206.3L735.8 1205.2L719.3 1050.9L732.6 1048.8L909.7 1148.3L913.6 1146.3C934.5 1135.2 954.9 1122.6 974.3 1108.9C974.3 1109 980.7 1104.3 980.7 1104.3C995.4 1093.6 1009.6 1082.1 1023.2 1070.1L1023.8 1070.8L1029.7 1065.4C1079.8 1019.6 1120.8 965.9 1151.5 905.7L1152 904.7C1153.7 901.4 1155.1 898.5 1156.4 895.8C1156.7 895.2 1157 894.5 1157.3 893.9L1158.1 892.2C1159.1 890.1 1160.1 888 1161.1 885.9C1161.6 884.9 1162.1 883.8 1162.5 882.8L1163.8 879.9C1164.4 878.6 1165 877.2 1165.6 875.9C1166.3 874.4 1166.9 872.9 1167.5 871.3L1168.6 868.6C1169 867.6 1169.4 866.6 1169.8 865.7C1170.7 863.6 1171.5 861.6 1172.3 859.5L1173.1 857.6C1173.4 856.9 1173.7 856.2 1174 855.5C1175.1 852.7 1176.1 850 1177.1 847.4L1177.4 846.5C1177.6 846.1 1177.7 845.6 1177.9 845.2C1179 842.1 1180.2 839 1181.4 835.4L1181.6 834.8C1211.8 747.8 1220.1 653.7 1205.7 562.5C1202.3 540.7 1197.5 518.8 1191.4 497.4L1191.8 497.9ZM864.4 299.2C863.8 298.8 863.2 298.5 862.6 298.1L861.5 297.4C860 296.5 858.6 295.6 857.1 294.7C856.6 294.4 856.2 294.2 855.7 293.9L854.6 293.2C853.5 292.6 852.5 292 851.4 291.4C850.4 290.8 849.4 290.3 848.4 289.7L847 288.9C846.5 288.6 846 288.4 845.6 288.1C839.5 284.7 833.2 281.5 826.8 278.4L826.3 278.2C824.3 277.3 822.4 276.3 820.4 275.4L819.7 275.1C817.8 274.2 815.8 273.3 813.9 272.5L813.2 272.2C811.2 271.3 809.3 270.5 807.3 269.6L806.8 269.4C804.7 268.5 802.5 267.6 800.4 266.8C772 255.5 742.3 247.3 712.1 242.5L704.2 241.3C700.4 240.9 704.4 241.7 700.5 241.3V133.5C785.7 141.1 867.4 171.7 938.7 218.8L870 302.9L864.4 299.2ZM650.5 0C291.3 0 0 291.3 0 650.5C0 1009.7 291.3 1301 650.5 1301C1009.7 1301 1301 1009.7 1301 650.5C1301 291.3 1009.8 0 650.5 0ZM1161.8 995.2C1139.7 1027.9 1114.4 1058.6 1086.5 1086.5C1058.6 1114.4 1027.9 1139.7 995.2 1161.8C962.2 1184.1 927 1203.2 890.5 1218.6C814.5 1250.7 733.8 1267 650.5 1267C567.2 1267 486.5 1250.7 410.5 1218.6C374 1203.2 338.7 1184 305.8 1161.8C273.1 1139.7 242.4 1114.4 214.5 1086.5C186.6 1058.6 161.3 1027.9 139.2 995.2C116.9 962.2 97.8 927 82.4 890.5C50.3 814.5 34 733.8 34 650.5C34 567.2 50.3 486.5 82.4 410.5C97.8 374 117 338.7 139.2 305.8C161.3 273.1 186.6 242.4 214.5 214.5C242.4 186.6 273.1 161.3 305.8 139.2C338.8 116.9 374 97.8 410.5 82.4C486.5 50.3 567.2 34 650.5 34C733.8 34 814.5 50.3 890.5 82.4C927 97.8 962.3 117 995.2 139.2C1027.9 161.3 1058.6 186.6 1086.5 214.5C1114.4 242.4 1139.7 273.1 1161.8 305.8C1184.1 338.8 1203.2 374 1218.6 410.5C1250.7 486.5 1267 567.2 1267 650.5C1267 733.8 1250.7 814.5 1218.6 890.5C1203.2 927 1184 962.3 1161.8 995.2ZM487.2 644.9H437.2C437.2 702.8 459.8 757.3 500.7 798.3C541.6 839.3 596.1 861.8 654.1 861.8C712.1 861.8 747.7 846.3 785.2 817.7L821.7 847.1C834.4 857.3 849.5 862.2 864.6 862.2C884.7 862.2 904.6 853.5 918.1 836.6C929.6 822.3 934.8 804.4 932.9 786.2C930.9 768 922 751.6 907.7 740.1L862.3 706C868 686.4 871 665.8 871 644.8H821C821 736.8 746.1 811.7 654.1 811.7C562.1 811.7 487.2 736.8 487.2 644.8V644.9ZM848.7 740.9L885.4 768.4C892.1 773.9 896.2 781.6 897.2 790.1C898.1 798.8 895.6 807.3 890.2 814C878.9 828 858.4 830.2 844.4 819L812.4 793.3C827.2 777.5 839.5 759.9 848.8 740.9H848.7ZM604 549.2C604 526.9 585.8 508.7 563.5 508.7C541.2 508.7 523 526.9 523 549.2C523 571.5 541.2 589.7 563.5 589.7C585.8 589.7 604 571.5 604 549.2ZM789.2 549.2C789.2 526.9 771 508.7 748.7 508.7C726.4 508.7 708.2 526.9 708.2 549.2C708.2 571.5 726.4 589.7 748.7 589.7C771 589.7 789.2 571.5 789.2 549.2Z" fill="black"/>
</svg>
