<svg width="171" height="175" viewBox="0 0 171 175" fill="none" xmlns="http://www.w3.org/2000/svg">
<g clip-path="url(#clip0_39_129)">
<path d="M83.1329 173.064C54.9999 173.064 30.1702 165.65 13.2684 152.095C-3.35813 124.542 0.991193 55.3826 9.57973 29.0468C24.0591 15.713 56.101 7.08191 91.4461 7.08191C126.791 7.08191 150.079 14.2744 159.219 25.3952C165.825 38.9504 169.459 62.9071 169.018 89.5195C168.578 115.413 164.173 138.65 157.567 150.324C144.078 163.935 114.184 173.064 83.0778 173.064H83.1329Z" fill="#FBFAFF"/>
<path d="M91.446 9.01829C122.772 9.01829 148.648 15.8789 157.567 26.5017C163.953 39.8356 167.532 63.3496 167.091 89.5194C166.651 114.97 162.412 137.709 156.025 149.162C149.804 155.303 139.454 160.836 126.791 164.764C113.413 168.914 98.2728 171.127 83.1328 171.127C55.5503 171.127 31.3263 163.935 14.6997 150.822C7.54262 138.705 3.68879 117.017 3.7989 89.7407C3.96406 64.0689 7.54262 41.606 11.1762 30.1533C18.3884 23.68 29.8398 18.3133 44.4293 14.551C58.5784 10.9547 74.8195 9.01829 91.391 9.01829M91.446 5.14539C58.7986 5.14539 24.1141 12.6146 7.87295 27.9402C-0.825702 53.8887 -5.78063 124.763 11.7818 153.367C30.7757 168.693 57.3671 174.945 83.1328 174.945C108.898 174.945 145.51 165.373 159.163 151.486C173.753 126.146 175.46 53.9993 160.87 24.3439C150.685 11.6187 121.946 5.14539 91.446 5.14539Z" fill="black"/>
<path d="M85.1696 59.1448C44.1538 59.1448 9.52441 46.0322 9.52441 30.5406C9.52441 15.049 44.1538 1.9364 85.1696 1.9364C126.185 1.9364 160.815 15.049 160.815 30.5406C160.815 46.0322 126.185 59.1448 85.1696 59.1448Z" fill="#FBFAFF"/>
<path d="M85.1698 3.87291C105.43 3.87291 124.424 6.97123 138.628 12.5593C145.234 15.1597 150.52 18.258 154.043 21.5223C157.291 24.51 158.888 27.553 158.888 30.596C158.888 33.639 157.236 36.6266 154.043 39.6696C150.52 42.9339 145.234 46.0323 138.628 48.6326C124.424 54.2207 105.43 57.319 85.1698 57.319C64.9096 57.319 45.9157 54.2207 31.7116 48.6326C25.1051 46.0323 19.8198 42.9339 16.2963 39.6696C13.0481 36.6819 11.4515 33.639 11.4515 30.596C11.4515 27.553 13.1031 24.5653 16.2963 21.5223C19.8198 18.258 25.1051 15.1597 31.7116 12.5593C45.9157 6.97123 64.9096 3.87291 85.1698 3.87291ZM85.1698 0C42.3372 0 7.59766 13.6658 7.59766 30.5406C7.59766 47.4154 42.3372 61.0813 85.1698 61.0813C128.002 61.0813 162.742 47.4154 162.742 30.5406C162.742 13.6658 128.002 0 85.1698 0Z" fill="black"/>
<path d="M130.149 127.806C135.592 127.806 140.004 125.75 140.004 123.214C140.004 120.678 135.592 118.622 130.149 118.622C124.707 118.622 120.294 120.678 120.294 123.214C120.294 125.75 124.707 127.806 130.149 127.806Z" fill="#650DBC"/>
<path d="M35.345 127.64C40.7877 127.64 45.1998 125.584 45.1998 123.048C45.1998 120.512 40.7877 118.456 35.345 118.456C29.9024 118.456 25.4902 120.512 25.4902 123.048C25.4902 125.584 29.9024 127.64 35.345 127.64Z" fill="#650DBC"/>
<path d="M125.14 119.617C132.528 119.617 138.518 110.551 138.518 99.3677C138.518 88.1841 132.528 79.1179 125.14 79.1179C117.751 79.1179 111.761 88.1841 111.761 99.3677C111.761 110.551 117.751 119.617 125.14 119.617Z" fill="black"/>
<path d="M41.5111 119.286C48.8997 119.286 54.8894 110.219 54.8894 99.0358C54.8894 87.8521 48.8997 78.786 41.5111 78.786C34.1225 78.786 28.1328 87.8521 28.1328 99.0358C28.1328 110.219 34.1225 119.286 41.5111 119.286Z" fill="black"/>
<path d="M45.42 100.862C48.5822 100.862 51.1457 96.9725 51.1457 92.1752C51.1457 87.3778 48.5822 83.4888 45.42 83.4888C42.2578 83.4888 39.6943 87.3778 39.6943 92.1752C39.6943 96.9725 42.2578 100.862 45.42 100.862Z" fill="white"/>
<path d="M128.277 100.087C131.44 100.087 134.003 96.198 134.003 91.4006C134.003 86.6033 131.44 82.7142 128.277 82.7142C125.115 82.7142 122.552 86.6033 122.552 91.4006C122.552 96.198 125.115 100.087 128.277 100.087Z" fill="white"/>
<path d="M39.0951 97.1227C39.4628 95.6185 38.9584 94.2009 37.9685 93.9566C36.9786 93.7122 35.8781 94.7336 35.5104 96.2379C35.1428 97.7422 35.6472 99.1597 36.637 99.4041C37.6269 99.6484 38.7274 98.627 39.0951 97.1227Z" fill="white"/>
<path d="M42.6674 109.05C43.914 109.05 44.9246 107.514 44.9246 105.62C44.9246 103.725 43.914 102.189 42.6674 102.189C41.4208 102.189 40.4102 103.725 40.4102 105.62C40.4102 107.514 41.4208 109.05 42.6674 109.05Z" fill="white"/>
<path d="M121.595 97.3903C121.95 95.6188 121.403 94.0134 120.372 93.8045C119.342 93.5957 118.218 94.8626 117.863 96.6341C117.507 98.4057 118.055 100.011 119.085 100.22C120.116 100.429 121.239 99.1619 121.595 97.3903Z" fill="white"/>
<path d="M125.084 108.995C126.392 108.995 127.452 107.385 127.452 105.398C127.452 103.412 126.392 101.802 125.084 101.802C123.777 101.802 122.717 103.412 122.717 105.398C122.717 107.385 123.777 108.995 125.084 108.995Z" fill="white"/>
<path d="M26.0962 76.2409C25.9861 76.2409 25.876 76.2409 25.7658 76.2409C25.1602 76.0749 24.885 75.411 25.0501 74.8577C26.0411 71.8147 28.1332 69.2696 30.941 67.7758C33.8038 66.282 36.997 66.0053 40.0801 67.0012C40.6857 67.1672 40.961 67.8311 40.7958 68.3844C40.6306 68.993 39.97 69.2696 39.4194 69.1037C36.942 68.3291 34.2993 68.5504 31.987 69.7676C29.6747 70.9848 27.968 73.0319 27.1973 75.5216C27.0321 76.0196 26.5917 76.2962 26.1512 76.2962L26.0962 76.2409Z" fill="#181623"/>
<path d="M139.013 76.3516C138.573 76.3516 138.132 76.075 137.967 75.577C136.26 70.4316 130.7 67.6653 125.58 69.3804C125.029 69.5464 124.369 69.2697 124.203 68.6611C124.038 68.1079 124.314 67.4439 124.919 67.278C131.195 65.1755 137.967 68.6058 140.059 74.9131C140.224 75.4664 139.949 76.1303 139.344 76.2963C139.233 76.2963 139.123 76.3516 139.013 76.3516Z" fill="#181623"/>
<path d="M101.08 131.07L106.696 138.705C108.403 141.748 107.522 145.566 104.659 147.17C101.796 148.775 98.1074 147.613 96.4007 144.515L90.7852 136.88" fill="#8551F1"/>
<path d="M101.466 142.8C101.026 142.8 100.64 142.634 100.365 142.246L95.41 135.552C94.9695 134.943 95.0797 134.058 95.6853 133.615C96.2909 133.173 97.1717 133.283 97.6122 133.892L102.567 140.587C103.008 141.195 102.897 142.08 102.292 142.523C102.072 142.689 101.741 142.8 101.466 142.8Z" fill="black"/>
<path d="M101.961 148.996C99.4289 148.996 96.8964 147.613 95.52 145.123L89.9595 137.543L91.7212 136.216L97.3919 143.961C98.8233 146.507 101.851 147.502 104.164 146.175C105.265 145.566 106.035 144.515 106.366 143.187C106.696 141.859 106.476 140.476 105.815 139.259L100.255 131.679L102.016 130.351L107.687 138.097C108.678 139.812 108.953 141.804 108.513 143.685C108.072 145.566 106.916 147.17 105.265 148.056C104.219 148.664 103.118 148.941 102.016 148.941L101.961 148.996Z" fill="black"/>
<path d="M83.6832 139.591C72.5071 139.591 63.7534 134.279 63.7534 127.474C63.7534 126.272 64.4691 125.814 65.4051 125.814C66.341 125.814 67.0567 126.533 67.0567 127.474C67.0567 132.232 74.6543 136.271 83.6832 136.271C92.7122 136.271 100.31 132.232 100.31 127.474C100.31 125.814 101.025 125.814 101.961 125.814C102.897 125.814 103.613 126.533 103.613 127.474C103.613 134.279 94.8593 139.591 83.6832 139.591Z" fill="black"/>
</g>
<defs>
<clipPath id="clip0_39_129">
<rect width="171" height="175" fill="white"/>
</clipPath>
</defs>
</svg>
